<mxfile host="app.diagrams.net" modified="2021-05-10T07:08:01.118Z" agent="5.0 (Windows NT 10.0; Win64; x64) AppleWebKit/537.36 (KHTML, like Gecko) Chrome/90.0.4430.93 Safari/537.36" etag="jEL7mHMjz7vNX31ccqTJ" version="14.6.6" type="github">
  <diagram id="wKVlNRdNngGwRRfKVBZE" name="Page-1">
    <mxGraphModel dx="2009" dy="732" grid="1" gridSize="10" guides="1" tooltips="1" connect="1" arrows="1" fold="1" page="1" pageScale="1" pageWidth="827" pageHeight="1169" math="0" shadow="0">
      <root>
        <mxCell id="0" />
        <mxCell id="1" parent="0" />
        <mxCell id="xfw1ysVXkGPDzTXTJ0Zk-2" value="&lt;pre style=&quot;background-color: rgb(255 , 255 , 255)&quot;&gt;&lt;font color=&quot;#24292e&quot; face=&quot;fira code, monospace&quot;&gt;&lt;span style=&quot;font-size: 15.0667px&quot;&gt;//flume agent地址，dev qa与prod隔离，防止并发测试影响线上&lt;br/&gt;bwlog.flume.hosts=106.75.26.193:41000&lt;br/&gt;//本项目编码，全局唯一，不同环境无需修改&lt;br/&gt;bwlog.datameta.name=icourse_study&lt;br/&gt;//业务编码，项目下唯一，不同环境无需修改&lt;br/&gt;bwlog.datameta.type=&lt;br/&gt;//dev, qa, prod， 区分不同环境&lt;br/&gt;bwlog.datameta.tag=&lt;br/&gt;//本地缓存路径，linux环境下需改为对应格式地址&lt;br/&gt;bwlog.local.filepath=D\\:test\\&lt;br/&gt;bwlog.batch.num=100&lt;br/&gt;bwlog.interval.time=500&lt;br/&gt;log.thread.num=1&lt;/span&gt;&lt;span style=&quot;font-size: 11.3pt&quot;&gt;&lt;br&gt;&lt;/span&gt;&lt;/font&gt;&lt;/pre&gt;" style="text;html=1;strokeColor=none;fillColor=none;align=left;verticalAlign=middle;whiteSpace=wrap;rounded=0;" vertex="1" parent="1">
          <mxGeometry x="-140" y="360" width="460" height="230" as="geometry" />
        </mxCell>
        <mxCell id="xfw1ysVXkGPDzTXTJ0Zk-5" style="edgeStyle=orthogonalEdgeStyle;rounded=0;orthogonalLoop=1;jettySize=auto;html=1;entryX=0;entryY=0.5;entryDx=0;entryDy=0;" edge="1" parent="1" source="xfw1ysVXkGPDzTXTJ0Zk-3" target="xfw1ysVXkGPDzTXTJ0Zk-4">
          <mxGeometry relative="1" as="geometry" />
        </mxCell>
        <mxCell id="xfw1ysVXkGPDzTXTJ0Zk-3" value="Flume SDK" style="ellipse;whiteSpace=wrap;html=1;aspect=fixed;" vertex="1" parent="1">
          <mxGeometry x="10" y="200" width="80" height="80" as="geometry" />
        </mxCell>
        <mxCell id="xfw1ysVXkGPDzTXTJ0Zk-6" style="edgeStyle=orthogonalEdgeStyle;rounded=0;orthogonalLoop=1;jettySize=auto;html=1;" edge="1" parent="1" source="xfw1ysVXkGPDzTXTJ0Zk-4">
          <mxGeometry relative="1" as="geometry">
            <mxPoint x="670" y="240" as="targetPoint" />
          </mxGeometry>
        </mxCell>
        <mxCell id="xfw1ysVXkGPDzTXTJ0Zk-4" value="Flume Agent" style="shape=hexagon;perimeter=hexagonPerimeter2;whiteSpace=wrap;html=1;fixedSize=1;align=center;" vertex="1" parent="1">
          <mxGeometry x="370" y="200" width="120" height="80" as="geometry" />
        </mxCell>
        <mxCell id="xfw1ysVXkGPDzTXTJ0Zk-7" value="qa,dev与prod分离。&lt;br&gt;代码、配置完全相同" style="whiteSpace=wrap;html=1;rounded=1;arcSize=50;align=center;verticalAlign=middle;strokeWidth=1;autosize=1;spacing=4;treeFolding=1;treeMoving=1;newEdgeStyle={&quot;edgeStyle&quot;:&quot;entityRelationEdgeStyle&quot;,&quot;startArrow&quot;:&quot;none&quot;,&quot;endArrow&quot;:&quot;none&quot;,&quot;segment&quot;:10,&quot;curved&quot;:1};" vertex="1" parent="1">
          <mxGeometry x="475" y="80" width="155" height="44" as="geometry" />
        </mxCell>
        <mxCell id="xfw1ysVXkGPDzTXTJ0Zk-8" value="" style="edgeStyle=entityRelationEdgeStyle;startArrow=none;endArrow=none;segment=10;curved=1;exitX=0.5;exitY=0;exitDx=0;exitDy=0;" edge="1" target="xfw1ysVXkGPDzTXTJ0Zk-7" parent="1" source="xfw1ysVXkGPDzTXTJ0Zk-4">
          <mxGeometry relative="1" as="geometry">
            <mxPoint x="400" y="180" as="sourcePoint" />
          </mxGeometry>
        </mxCell>
        <mxCell id="xfw1ysVXkGPDzTXTJ0Zk-10" style="edgeStyle=orthogonalEdgeStyle;rounded=0;orthogonalLoop=1;jettySize=auto;html=1;" edge="1" parent="1" source="xfw1ysVXkGPDzTXTJ0Zk-9">
          <mxGeometry relative="1" as="geometry">
            <mxPoint x="880" y="240" as="targetPoint" />
          </mxGeometry>
        </mxCell>
        <mxCell id="xfw1ysVXkGPDzTXTJ0Zk-9" value="Kafka" style="rounded=1;whiteSpace=wrap;html=1;align=center;" vertex="1" parent="1">
          <mxGeometry x="670" y="210" width="120" height="60" as="geometry" />
        </mxCell>
        <mxCell id="xfw1ysVXkGPDzTXTJ0Zk-11" value="HDFS" style="shape=cylinder3;whiteSpace=wrap;html=1;boundedLbl=1;backgroundOutline=1;size=15;align=center;" vertex="1" parent="1">
          <mxGeometry x="880" y="190" width="80" height="90" as="geometry" />
        </mxCell>
      </root>
    </mxGraphModel>
  </diagram>
</mxfile>
